
<svg xmlns="http://www.w3.org/2000/svg" viewBox="0 0 1200 1200" width="1200" height="1200"> <defs> <linearGradient id="glass" x1="0" x2="0" y1="0" y2="1"> <stop offset="0" stop-color="#68B2FF"/> <stop offset="0.5" stop-color="#1E5CD4"/> <stop offset="1" stop-color="#07204A"/> </linearGradient> <linearGradient id="spec" x1="0" x2="1" y1="0" y2="0"> <stop offset="0" stop-color="#FFFFFF" stop-opacity="0.9"/> <stop offset="1" stop-color="#FFFFFF" stop-opacity="0.0"/> </linearGradient> <filter id="innerShadow"> <feDropShadow dx="0" dy="6" stdDeviation="10" flood-color="#000" flood-opacity="0.25"/> </filter> </defs>
<rect width="100%" height="100%" fill="transparent"/> <!-- 半透明圆形背景以制造“水晶球”感 --> <circle cx="600" cy="420" r="300" fill="url(#glass)" opacity="0.95" filter="url(#innerShadow)"/> <!-- 高光 --> <ellipse cx="470" cy="310" rx="200" ry="60" fill="url(#spec)" opacity="0.6" transform="rotate(-22 470 310)"/> <!-- S：厚面+镜面切面 --> <g transform="translate(0,0)"> <path d="M370,340 L830,340 C860,340 890,350 890,390 C890,430 860,440 830,440 L680,440 C680,440 660,440 647,456 C634,472 634,496 647,512 C660,528 680,528 680,528 L830,528 C860,528 890,538 890,578 C890,618 860,628 830,628 L370,628 C340,628 310,618 310,578 C310,538 340,528 370,528 L520,528 C520,528 540,528 553,512 C566,496 566,472 553,456 C540,440 520,440 520,440 L370,440 C340,440 310,430 310,390 C310,350 340,340 370,340 Z" fill="#012A4A" transform="translate(0,0) scale(0.8) translate(120,132)"/> <!-- 镜面反光条 --> <path d="M400,380 L800,380 C805,380 825,382 825,400 C825,418 805,420 800,420 L620,420 C620,420 605,420 597,428 C589,436 589,446 597,454 C605,462 620,462 620,462 L800,462 C805,462 825,464 825,482 C825,500 805,502 800,502 L400,502 C395,502 375,500 375,482 C375,464 395,462 400,462 L580,462 C580,462 595,462 603,454 C611,446 611,436 603,428 C595,420 580,420 580,420 L400,420 C395,420 375,418 375,400 C375,382 395,380 400,380 Z" fill="#FFFFFF" opacity="0.12" transform="translate(0,0) scale(0.8) translate(120,132)"/> </g>
<text x="600" y="980" text-anchor="middle" font-family="Sora, Poppins, Montserrat, Arial, sans-serif" font-weight="700" font-size="120" fill="#06142A">Starkernal</text> </svg>
