<svg xmlns="http://www.w3.org/2000/svg" viewBox="0 0 1200 1200" width="1200" height="1200"> <defs> <linearGradient id="g1" x1="0" x2="1" y1="0" y2="1"> <stop offset="0" stop-color="#00A3FF"/> <stop offset="0.55" stop-color="#0057D9"/> <stop offset="1" stop-color="#001F5B"/> </linearGradient> <filter id="soft" x="-50%" y="-50%" width="200%" height="200%"> <feGaussianBlur stdDeviation="10" result="b"/> <feMerge><feMergeNode in="b"/><feMergeNode in="SourceGraphic"/></feMerge> </filter> </defs>

<!-- 背景透明 --> <rect width="100%" height="100%" fill="transparent"/> <!-- 圆形白底（可按需去掉） --> <circle cx="600" cy="410" r="320" fill="#FFFFFF"/> <!-- S: 使用两层渐变与锐角切面，形成“刀锋”感 --> <g transform="translate(0,0)"> <path d="M355,330 L845,330 C870,330 904,332 904,390 C904,448 870,450 845,450 L670,450 C670,450 642,450 624,468 C606,486 606,518 624,536 C642,554 670,554 670,554 L845,554 C870,554 904,556 904,614 C904,672 870,674 845,674 L355,674 C330,674 296,672 296,614 C296,556 330,554 355,554 L530,554 C530,554 558,554 576,536 C594,518 594,486 576,468 C558,450 530,450 530,450 L355,450 C330,450 296,448 296,390 C296,332 330,330 355,330 Z" fill="url(#g1)" transform="translate(0,0) scale(0.8) translate(120,120)"/> <!-- 下方微暗投影增加厚度 --> <ellipse cx="600" cy="740" rx="260" ry="28" fill="#000000" opacity="0.08"/> </g> <!-- 字标：推荐 Poppins / Montserrat（示例用 text；导出前请转曲） -->
<text x="600" y="980" text-anchor="middle" font-family="Poppins, Montserrat, Arial, sans-serif" font-weight="700" font-size="120" fill="#031738">Starkernal</text> </svg>
